<?xml version="1.0" encoding="UTF-8"?>
<svg version="1.1" xmlns="http://www.w3.org/2000/svg" width="319" height="320">
<path d="M0 0 C105.27 0 210.54 0 319 0 C319 105.6 319 211.2 319 320 C213.73 320 108.46 320 0 320 C0 214.4 0 108.8 0 0 Z " fill="#14242C" transform="translate(0,0)"/>
<path d="M0 0 C105.27 0 210.54 0 319 0 C319 105.6 319 211.2 319 320 C213.73 320 108.46 320 0 320 C0 214.4 0 108.8 0 0 Z M57.8359375 64.1953125 C56.15945475 66.08614008 54.57268693 68.02234618 53 70 C52.38125 70.72058594 51.7625 71.44117188 51.125 72.18359375 C40.09576316 85.30235398 32.41675361 100.62667204 26.8125 116.75 C26.57442627 117.41555908 26.33635254 118.08111816 26.09106445 118.7668457 C21.58485737 132.3044205 20.43964095 146.2113566 20.5625 160.375 C20.56587372 161.1369165 20.56924744 161.89883301 20.57272339 162.68383789 C20.64832531 174.50680294 21.36494949 185.68515506 25 197 C25.23605957 197.76054687 25.47211914 198.52109375 25.71533203 199.3046875 C32.74961213 221.43704526 44.0666344 240.15378533 60 257 C61.11375 258.19302734 61.11375 258.19302734 62.25 259.41015625 C67.00495252 264.35497666 71.92734255 268.72615719 78 272 C78.66 272 79.32 272 80 272 C80 272.66 80 273.32 80 274 C83.22114157 276.31592022 83.22114157 276.31592022 87 277 C87 277.66 87 278.32 87 279 C91.04453527 282.03340145 95.15195009 282.93178561 100 284 C100 284.66 100 285.32 100 286 C105.95683968 288.21900357 111.87741151 290.28137867 118 292 C119.23556641 292.4640625 119.23556641 292.4640625 120.49609375 292.9375 C141.46222508 300.67533951 166.20037642 299.67879904 187.83349609 295.42333984 C189.99558313 295.00086307 192.16173038 294.61604693 194.33203125 294.23828125 C200.17304268 293.17909466 204.91589125 292.18669017 210 289 C211.92574242 288.28022321 213.86465433 287.5951167 215.8125 286.9375 C229.55893775 281.73404616 241.29585439 272.92753365 252 263 C252.60199219 262.44715332 253.20398438 261.89430664 253.82421875 261.32470703 C276.01411426 240.73042514 290.37888309 214.80189796 296 185 C296.20753906 184.030625 296.41507812 183.06125 296.62890625 182.0625 C303.34881581 146.72423437 293.19462147 110.3821001 273.89453125 80.76953125 C269.40552131 74.41682057 264.34081386 68.64549116 259 63 C258.25234375 62.18789063 257.5046875 61.37578125 256.734375 60.5390625 C233.4796681 36.12932049 199.42466174 21.77253661 165.89453125 20.7265625 C124.03999333 19.98082463 87.551796 34.05034413 57.8359375 64.1953125 Z " fill="#12232B" transform="translate(0,0)"/>
<path d="M0 0 C2.06451402 0.0106356 4.12814072 0.0000955 6.19262695 -0.01269531 C18.68601525 -0.02758878 31.02638429 1.04944519 43.02270508 4.76074219 C44.26213867 5.13996826 44.26213867 5.13996826 45.52661133 5.52685547 C60.05299186 10.19877974 74.20796389 17.04544384 86.39770508 26.26074219 C87.27942383 26.92203125 88.16114258 27.58332031 89.06958008 28.26464844 C118.76774496 51.56826625 138.27959031 84.9498117 142.98364258 122.56542969 C144.54643943 137.93238143 143.84854782 153.22720968 140.39770508 168.26074219 C140.07286133 169.81728516 140.07286133 169.81728516 139.74145508 171.40527344 C131.33791807 208.77100049 106.88513604 238.81140962 75.18286133 259.34277344 C69.60409758 262.75321459 64.10022548 265.3468141 57.87036133 267.33886719 C55.34639164 268.17289785 55.34639164 268.17289785 53.17114258 269.74121094 C49.26322575 271.88230903 45.31556682 272.52347805 40.96020508 273.32324219 C40.06205078 273.49243164 39.16389648 273.66162109 38.23852539 273.8359375 C36.43928671 274.17027509 34.63899757 274.49901471 32.83764648 274.82177734 C30.82706217 275.18349744 28.82069492 275.56857732 26.81567383 275.95996094 C11.77456497 278.57499959 -4.03112644 278.06034085 -19.10229492 275.94824219 C-19.94348877 275.8306958 -20.78468262 275.71314941 -21.65136719 275.59204102 C-26.9678751 274.75253593 -31.61062969 273.26820107 -36.60229492 271.26074219 C-37.69541992 270.95136719 -38.78854492 270.64199219 -39.91479492 270.32324219 C-44.90424246 268.88560476 -49.73840763 267.07260617 -54.60229492 265.26074219 C-54.60229492 264.60074219 -54.60229492 263.94074219 -54.60229492 263.26074219 C-55.20557617 263.06738281 -55.80885742 262.87402344 -56.43041992 262.67480469 C-57.22963867 262.41441406 -58.02885742 262.15402344 -58.85229492 261.88574219 C-59.64120117 261.63050781 -60.43010742 261.37527344 -61.24291992 261.11230469 C-63.4685745 260.30900552 -65.51161165 259.36362557 -67.60229492 258.26074219 C-67.60229492 257.60074219 -67.60229492 256.94074219 -67.60229492 256.26074219 C-68.38604492 255.95136719 -69.16979492 255.64199219 -69.97729492 255.32324219 C-72.60229492 254.26074219 -72.60229492 254.26074219 -74.60229492 253.26074219 C-74.60229492 252.60074219 -74.60229492 251.94074219 -74.60229492 251.26074219 C-75.46081055 251.04675781 -76.31932617 250.83277344 -77.20385742 250.61230469 C-81.35449089 248.96159299 -83.81696239 246.71573128 -86.97729492 243.63574219 C-87.54891357 243.08942139 -88.12053223 242.54310059 -88.70947266 241.98022461 C-89.84250814 240.8943388 -90.97179095 239.80452116 -92.09692383 238.71044922 C-93.30785782 237.5442919 -94.55004333 236.41063038 -95.80151367 235.28808594 C-112.24571086 220.15390865 -123.40211838 197.44140857 -129.60229492 176.26074219 C-129.81112305 175.59333008 -130.01995117 174.92591797 -130.23510742 174.23828125 C-136.92303953 152.21678328 -136.02161054 124.25284198 -129.60229492 102.26074219 C-129.29678711 101.14505859 -129.29678711 101.14505859 -128.98510742 100.00683594 C-123.33963509 79.69010528 -112.90732723 61.89773378 -98.61401367 46.46386719 C-96.47147053 44.17668567 -96.47147053 44.17668567 -94.22729492 41.19824219 C-90.16063825 36.64745972 -85.3925204 33.02205721 -80.60229492 29.26074219 C-79.95389648 28.73480469 -79.30549805 28.20886719 -78.63745117 27.66699219 C-62.58543102 15.02207478 -43.48510907 6.63106695 -23.60229492 2.26074219 C-22.90789307 2.08414062 -22.21349121 1.90753906 -21.49804688 1.72558594 C-14.36198588 0.05227198 -7.29401347 -0.04450178 0 0 Z M-84.63745117 58.92089844 C-108.44345958 85.1930521 -116.26797451 117.56163099 -114.60229492 152.26074219 C-112.29152868 183.92808511 -93.60099174 211.59117256 -70.60229492 232.26074219 C-57.85434569 243.03952599 -40.15455089 252.9829733 -23.47729492 255.32324219 C-20.33068573 255.77093049 -17.52475464 256.28675192 -14.50463867 257.29980469 C-9.2181537 258.85843619 -3.75492861 258.60097996 1.71020508 258.57324219 C2.86649414 258.56760254 4.0227832 258.56196289 5.21411133 258.55615234 C34.66938853 258.14296026 62.28135352 247.90956691 84.39770508 228.26074219 C85.3490332 227.4215625 86.30036133 226.58238281 87.28051758 225.71777344 C108.603924 205.63975115 123.49782875 174.7854603 124.64379883 145.37792969 C125.36844151 110.80165338 113.6254892 80.7502067 90.35083008 55.27636719 C84.03227671 48.75562011 76.8581303 43.40695618 69.39770508 38.26074219 C68.65262695 37.74640625 67.90754883 37.23207031 67.13989258 36.70214844 C18.02663987 5.12934313 -45.70902776 17.6483454 -84.63745117 58.92089844 Z " fill="#40BEA1" transform="translate(154.602294921875,20.7392578125)"/>
<path d="M0 0 C2.81972931 2.36493426 2.97850831 3.8280665 3.4375 7.5 C3 11 3 11 1.03515625 12.78125 C-2.11208507 16.21240752 -1.95170263 19.50574279 -2.0390625 24.01733398 C-1.79252724 28.97233708 -0.3256901 31.33175172 3.3046875 34.62890625 C4.43425409 35.58409275 5.56446221 36.53852113 6.6953125 37.4921875 C9.77335346 40.25052856 10.8900544 41.56434058 11.9375 45.71484375 C12.0829708 54.52491908 12.0829708 54.52491908 9.1875 58.46875 C7 60 7 60 4.99609375 59.953125 C2.6542655 58.83491347 1.00833711 57.46801357 -0.9375 55.75 C-11.89227458 46.89139693 -25.37405303 44.88823421 -39 46 C-47.45545047 47.56416896 -54.23628608 50.76535379 -61 56 C-62.03125 56.721875 -63.0625 57.44375 -64.125 58.1875 C-72.15893648 65.21719442 -77.19249292 76.50362111 -78.19091797 87.00878906 C-78.9614911 100.7128406 -76.26203636 112.20110456 -68.16796875 123.57421875 C-60.3535154 132.31795844 -49.76625477 138.75269384 -38 140 C-35.47681785 140.1181626 -35.47681785 140.1181626 -33 139 C-30.9780408 136.90214143 -29.41358616 134.55206253 -27.8125 132.125 C-27.15604492 131.16787109 -27.15604492 131.16787109 -26.48632812 130.19140625 C-25.30984033 128.4706806 -24.15389903 126.7359543 -23 125 C-22.01 123.515 -22.01 123.515 -21 122 C-21.825 122.33 -22.65 122.66 -23.5 123 C-31.0481972 125.15662777 -37.87624527 124.09248267 -45 121 C-52.95343595 116.38931249 -56.97328764 110.05342473 -61 102 C-61.17878097 99.11019609 -61.27779906 96.26674462 -61.3125 93.375 C-61.35600586 92.20130859 -61.35600586 92.20130859 -61.40039062 91.00390625 C-61.48970952 82.71786139 -58.18776723 76.66790921 -52.703125 70.6015625 C-46.33024902 64.6087204 -39.0240018 61.55770946 -30.28515625 61.8203125 C-21.29665707 62.52710047 -13.74970249 66.3374999 -7.3125 72.625 C-6 75 -6 75 -6.25 77.3125 C-6.4975 77.869375 -6.745 78.42625 -7 79 C-8.32 79 -9.64 79 -11 79 C-11.53625 78.278125 -12.0725 77.55625 -12.625 76.8125 C-16.78906931 71.8813653 -21.86137283 69.47497385 -28.2265625 68.51171875 C-36.52978809 68.17142262 -42.34217356 69.84540606 -48.5546875 75.38671875 C-53.89034746 81.14860007 -55.56302887 87.88404771 -55.28125 95.55078125 C-54.46790836 102.63363136 -51.39595703 108.32587056 -46 113 C-39.55170037 117.33724916 -32.59823709 118.13775686 -25 117 C-19.79435844 115.30093644 -15.58077605 113.15485135 -12.3125 108.6875 C-10 106 -10 106 -6.1875 105.625 C-5.135625 105.74875 -4.08375 105.8725 -3 106 C-5.96793263 111.43645352 -9.3320541 116.38956995 -13 121.375 C-14.1674644 122.97598109 -15.33411268 124.57755757 -16.5 126.1796875 C-17.08652344 126.9850293 -17.67304687 127.79037109 -18.27734375 128.62011719 C-20.8853296 132.22309991 -23.4442332 135.85987797 -26 139.5 C-30.18263981 145.45101747 -34.41747826 151.36138694 -38.6875 157.25 C-43.89421624 164.4316241 -48.99325683 171.67747639 -54 179 C-41.62899003 180.64219491 -41.62899003 180.64219491 -30.24609375 177.1484375 C-28.19342386 174.21351856 -26.62874933 171.19007767 -25 168 C-23.1640892 165.23308564 -21.20173317 162.56097561 -19.25 159.875 C-18.21104932 158.40540467 -17.17461781 156.93402536 -16.140625 155.4609375 C-13.59358745 151.84237672 -11.04490171 148.22500867 -8.48852539 144.61303711 C-7.49430464 143.20169045 -6.50651564 141.78579146 -5.52514648 140.36547852 C-3.0183317 136.75452557 -0.44576186 133.28899802 2.38671875 129.92578125 C11.56992147 118.67970457 12.69124657 109.34336633 12 95 C6.39 95 0.78 95 -5 95 C-2.73895065 89.34737662 0.2798278 85.17074186 3.875 80.3125 C4.50019531 79.44560547 5.12539062 78.57871094 5.76953125 77.68554688 C6.37925781 76.85732422 6.98898438 76.02910156 7.6171875 75.17578125 C8.17003418 74.42208252 8.72288086 73.66838379 9.29248047 72.8918457 C11.07345141 70.91861954 12.56213899 70.00728983 15 69 C19.82518493 74.16498669 24.16258155 79.69172713 28.4375 85.3125 C28.98180664 86.01826172 29.52611328 86.72402344 30.08691406 87.45117188 C30.59319336 88.12341797 31.09947266 88.79566406 31.62109375 89.48828125 C32.0792749 90.09196533 32.53745605 90.69564941 33.00952148 91.31762695 C34 93 34 93 34 96 C32.66679321 96.02777514 31.33340287 96.04673341 30 96.0625 C29.2575 96.07410156 28.515 96.08570313 27.75 96.09765625 C24.12329747 95.9688671 20.59663842 95.48386979 17 95 C16.96426205 98.64753269 17.00686862 102.29030682 17.0625 105.9375 C17.04606445 107.46987305 17.04606445 107.46987305 17.02929688 109.03320312 C17.20746202 116.9997303 19.38555834 121.38555834 25 127 C31.266522 132.71682709 38.95921854 136.45855779 47 139 C47.85722656 139.28617188 48.71445313 139.57234375 49.59765625 139.8671875 C52.76997488 140.44031638 54.06985149 140.43121276 57 139 C61.44912696 134.27868434 64.76151101 128.58885535 68 123 C66.88882813 123.05800781 65.77765625 123.11601562 64.6328125 123.17578125 C54.40157295 123.55211593 47.10869473 123.02194192 38.9140625 116.28515625 C35.60943175 113.20308227 33.21609619 110.45901936 32 106 C34.75 105.6875 34.75 105.6875 38 106 C39.38903267 107.62053812 40.71332828 109.29705213 42 111 C49.47701561 116.49735771 55.74568192 117.82771541 65 117 C72.38024618 114.97015651 76.63760812 111.00087617 81.3125 105.0625 C84.51697812 99.1355181 83.89547686 91.19616018 82.52734375 84.78515625 C80.18726915 78.6056778 75.6601009 73.53337416 69.8125 70.5625 C62.7895961 67.81954764 54.82994925 67.8483686 47.859375 70.80078125 C44.20240355 73.15937418 41.60988304 76.56637262 39 80 C37.02 79.01 37.02 79.01 35 78 C35.64135248 72.66761222 37.80354607 70.84432751 41.84765625 67.58203125 C49.39059031 62.03776938 56.8173349 62.1442333 66 63 C75.21697055 65.16079972 81.41106859 70.14608805 86.375 78.0625 C90.27044913 84.65559973 90.81870836 91.46593378 90 99 C87.81719854 107.34141988 83.26664123 113.64562286 77.93359375 120.265625 C74.45678913 124.61491303 71.29817687 129.17689216 68.125 133.75 C67.5283252 134.60843506 66.93165039 135.46687012 66.31689453 136.35131836 C65.11882215 138.07551206 63.92122657 139.80003718 62.72412109 141.52490234 C60.15042164 145.21962977 57.54310995 148.89024832 54.9375 152.5625 C48.51368125 161.63263623 42.25905547 170.81551644 36 180 C43.26 180 50.52 180 58 180 C58.66 178.35 59.32 176.7 60 175 C61.54043834 172.76065908 63.10616053 170.59757451 64.75 168.4375 C69.88038025 161.57117327 74.83282178 154.59514203 79.72216797 147.55541992 C82.53467342 143.50931211 85.36290987 139.48131902 88.27734375 135.5078125 C93.26607003 128.67660606 97.87318577 121.87799498 101.6875 114.3125 C102.01476074 113.66506836 102.34202148 113.01763672 102.67919922 112.35058594 C107.43910823 102.44644356 107.74771792 88.11215798 104.875 77.5 C100.20793079 64.86635218 92.30682699 56.00939194 80.20068359 50.23730469 C68.86795989 45.11383686 55.69939443 43.9182664 43.6875 47.5625 C37.59285707 49.88743191 32.36642789 53.34608149 27 57 C25.33986984 58.01081434 23.67506784 59.01413717 22 60 C18.77932085 57.89079118 17.21493323 56.71582914 16.08984375 52.96875 C15.68452097 43.73986211 15.68452097 43.73986211 18.18359375 40.43457031 C20.23651592 38.40206845 22.41775009 36.55923471 24.63354492 34.70800781 C28.49220007 31.23411885 29.77800346 28.65783727 30.20141602 23.46435547 C30.27111949 20.28741802 30.20931407 17.17191321 30 14 C31.65 14 33.3 14 35 14 C36.80840513 30.15843473 36.80840513 30.15843473 33.82226562 34.85058594 C31.80681843 36.98063699 29.70245343 38.7163253 27.26855469 40.34887695 C25.36545685 41.59406595 25.36545685 41.59406595 23 44 C22.48546431 46.84937539 22.70370477 49.07717097 23 52 C23.67804688 51.54109375 24.35609375 51.0821875 25.0546875 50.609375 C40.21857889 40.61212804 40.21857889 40.61212804 49 41 C48.93981939 38.58073961 48.85277783 36.16751328 48.75 33.75 C48.73582031 33.06808594 48.72164062 32.38617188 48.70703125 31.68359375 C48.53784146 28.19828398 48.31900445 26.36484198 45.98828125 23.69921875 C45.33214844 23.13847656 44.67601562 22.57773438 44 22 C43.4375 19.0625 43.4375 19.0625 44 16 C46.45594125 12.67725596 47.9256644 11.22381992 52 10.375 C56.11289267 11.23185264 57.59686932 12.57735933 60 16 C60.0625 19.5625 60.0625 19.5625 59 23 C58.00033203 23.88751953 58.00033203 23.88751953 56.98046875 24.79296875 C54.31651637 27.76167308 54.40737272 29.81568203 54.25 33.75 C54.19328125 34.92046875 54.1365625 36.0909375 54.078125 37.296875 C54.05234375 38.18890625 54.0265625 39.0809375 54 40 C55.485 39.96519531 55.485 39.96519531 57 39.9296875 C72.17440468 39.67001649 84.66873122 43.24205464 96.4375 53.25 C106.9120192 63.38052842 112.90924575 76.37529261 113.29272461 90.91137695 C113.48993704 112.36370718 102.07526713 127.28875748 90 144 C89.46536133 144.74088867 88.93072266 145.48177734 88.37988281 146.24511719 C86.21385208 149.24574134 84.04694783 152.24570817 81.87451172 155.24169922 C77.53533755 161.23202893 73.26614958 167.26971497 69.04492188 173.34375 C68.58666016 173.99859375 68.12839844 174.6534375 67.65625 175.328125 C67.26244141 175.8943457 66.86863281 176.46056641 66.46289062 177.04394531 C65.98013672 177.68944336 65.49738281 178.33494141 65 179 C64.27466064 180.05364746 63.54932129 181.10729492 62.80200195 182.19287109 C60 185 60 185 56.49487305 185.68115234 C55.18043213 185.64973145 53.86599121 185.61831055 52.51171875 185.5859375 C51.80852005 185.57744781 51.10532135 185.56895813 50.3808136 185.56021118 C48.14810955 185.52678324 45.91910021 185.45154502 43.6875 185.375 C42.1686722 185.34488573 40.64978741 185.31751245 39.13085938 185.29296875 C35.41938466 185.22703363 31.71005327 185.1235945 28 185 C27.38427734 183.18774414 27.38427734 183.18774414 27 181 C28.45241147 178.64366156 29.91389702 176.59375867 31.625 174.4375 C32.63716704 173.11430856 33.64612807 171.78866026 34.65234375 170.4609375 C35.1922998 169.7503418 35.73225586 169.03974609 36.28857422 168.30761719 C39.3766726 164.14375044 42.27631518 159.85103258 45.1875 155.5625 C45.76387207 154.71550537 46.34024414 153.86851074 46.93408203 152.99584961 C48.29159695 150.9987165 49.64698331 149.00018211 51 147 C49.56720703 146.58041016 49.56720703 146.58041016 48.10546875 146.15234375 C35.35007867 142.26493945 26.19443731 136.8167479 16.99609375 126.94140625 C15.22513072 124.7675938 15.22513072 124.7675938 13 125 C11.6799926 126.54527465 11.6799926 126.54527465 10.3828125 128.59375 C9.86460937 129.36847656 9.34640625 130.14320313 8.8125 130.94140625 C8.255625 131.78574219 7.69875 132.63007813 7.125 133.5 C2.90347531 139.79476238 -1.39394447 145.98055622 -6 152 C-11.10005933 158.67919638 -15.87315994 165.54891884 -20.54882812 172.53125 C-21.05736328 173.28664062 -21.56589844 174.04203125 -22.08984375 174.8203125 C-22.53191162 175.48305176 -22.97397949 176.14579102 -23.42944336 176.82861328 C-24.2068689 177.90344971 -24.2068689 177.90344971 -25 179 C-25.72606445 180.06412109 -26.45212891 181.12824219 -27.20019531 182.22460938 C-30.16576554 185.16432007 -31.48033839 185.68260501 -35.59785461 185.67977905 C-36.64189705 185.63332748 -36.64189705 185.63332748 -37.70703125 185.5859375 C-38.43242599 185.57744781 -39.15782074 185.56895813 -39.90519714 185.56021118 C-42.20917957 185.52677401 -44.50958652 185.45153114 -46.8125 185.375 C-48.37950652 185.34488705 -49.94656824 185.31751355 -51.51367188 185.29296875 C-55.34381356 185.227017 -59.17130191 185.12357794 -63 185 C-63 180.97475527 -62.97784502 180.47083605 -60.796875 177.48828125 C-60.31637695 176.82046631 -59.83587891 176.15265137 -59.34082031 175.46459961 C-58.81584961 174.75440674 -58.29087891 174.04421387 -57.75 173.3125 C-56.65596721 171.79968363 -55.56222626 170.28665618 -54.46875 168.7734375 C-53.61603516 167.60312988 -53.61603516 167.60312988 -52.74609375 166.40917969 C-49.87423839 162.44672602 -47.06485507 158.44053724 -44.25 154.4375 C-43.23466867 152.99849066 -42.219071 151.55966919 -41.203125 150.12109375 C-40.47609375 149.09113281 -39.7490625 148.06117188 -39 147 C-40.43279297 146.58041016 -40.43279297 146.58041016 -41.89453125 146.15234375 C-57.28768982 141.46103831 -70.5197781 133.72438605 -78.44067383 119.1472168 C-81.92347217 112.29319167 -84.48345691 105.74814638 -85 98 C-85.06832031 97.03707031 -85.13664062 96.07414062 -85.20703125 95.08203125 C-85.70984513 80.68665605 -81.02569208 68.47263714 -71.5625 57.6875 C-70.05855802 56.10873504 -68.53908098 54.54452906 -67 53 C-66.44699219 52.42378906 -65.89398438 51.84757812 -65.32421875 51.25390625 C-56.99895595 43.30049142 -45.99042579 39.80841384 -34.75 39.9375 C-34.00492188 39.94201172 -33.25984375 39.94652344 -32.4921875 39.95117188 C-30.6614236 39.96290754 -28.83070127 39.9808415 -27 40 C-27.06034932 37.77009273 -27.1492275 35.5409464 -27.25 33.3125 C-27.29640625 32.07113281 -27.3428125 30.82976562 -27.390625 29.55078125 C-28.07921063 25.53844575 -29.39779624 24.02982042 -32 21 C-31.93977486 17.50694211 -31.63658168 15.09633511 -29.875 12.0625 C-26.80540211 10.32306119 -24.44975824 10.58364987 -21 11 C-18.0625 12.5625 -18.0625 12.5625 -16 15 C-15.4375 18.5 -15.4375 18.5 -16 22 C-17.875 24.4375 -17.875 24.4375 -20 26 C-20.66 26 -21.32 26 -22 26 C-22 30.95 -22 35.9 -22 41 C-20.02 41 -18.04 41 -16 41 C-8.37884596 43.54621794 -1.2594224 46.93284853 5 52 C5.51795216 48.83473679 5.75603016 47.05940204 5 44 C1.61438927 39.60427907 -2.39436499 36.07042334 -7 33 C-7.34057617 31.02880859 -7.34057617 31.02880859 -7.29296875 28.6484375 C-7.28330078 27.79765625 -7.27363281 26.946875 -7.26367188 26.0703125 C-7.23853516 25.18085937 -7.21339844 24.29140625 -7.1875 23.375 C-7.17396484 22.4778125 -7.16042969 21.580625 -7.14648438 20.65625 C-7.11106925 18.43690211 -7.06168461 16.21874812 -7 14 C-7.639375 13.690625 -8.27875 13.38125 -8.9375 13.0625 C-11 12 -11 12 -12 11 C-12.70119522 3.87118194 -12.70119522 3.87118194 -9.9375 0.4375 C-6.08838451 -1.44610971 -4.07579849 -1.207644 0 0 Z " fill="#F3F3F3" transform="translate(145,54)"/>
<path d="M0 0 C1.65 0.33 3.3 0.66 5 1 C5.12379245 5.48395303 5.21442571 9.96699602 5.2746582 14.45214844 C5.29977103 15.9770643 5.33386883 17.50186015 5.37719727 19.02636719 C5.43800044 21.22100426 5.46623887 23.4140481 5.48828125 25.609375 C5.51446533 26.92905273 5.54064941 28.24873047 5.56762695 29.60839844 C5 33 5 33 2.50463867 35.24316406 C1.26484253 36.11279785 1.26484253 36.11279785 0 37 C-0.75 40.5 -0.75 40.5 0 44 C0.66 44.66 1.32 45.32 2 46 C4 48 4 48 4.5 51.5 C4 55 4 55 2.4375 57.375 C-0.8825626 59.58837507 -3.0025615 60.140261 -7 60 C-10.48062649 56.9637088 -11.749394 55.39225554 -12.5625 50.875 C-11.87777376 47.37528813 -10.80450887 46.14462443 -8 44 C-7.34 44 -6.68 44 -6 44 C-6.05800781 43.39671875 -6.11601562 42.7934375 -6.17578125 42.171875 C-6.22089844 41.37265625 -6.26601562 40.5734375 -6.3125 39.75 C-6.39951172 38.56664062 -6.39951172 38.56664062 -6.48828125 37.359375 C-6 35 -6 35 -3.51367188 33.30078125 C-0.697589 31.17826298 -0.697589 31.17826298 -0.34057617 27.70019531 C-0.32486572 26.42241211 -0.30915527 25.14462891 -0.29296875 23.828125 C-0.27784744 23.1457074 -0.26272614 22.46328979 -0.24714661 21.76019287 C-0.20430606 19.58979155 -0.19543661 17.42078177 -0.1875 15.25 C-0.16435237 13.77470268 -0.13898645 12.29943839 -0.11132812 10.82421875 C-0.04851626 7.21617268 -0.01614936 3.60859084 0 0 Z " fill="#F4F4F4" transform="translate(157,186)"/>
<path d="M0 0 C0.93134766 0.01804688 1.86269531 0.03609375 2.82226562 0.0546875 C5.11174197 0.10165112 7.39908184 0.16730525 9.6875 0.25 C9.6875 1.9 9.6875 3.55 9.6875 5.25 C3.7475 5.58 -2.1925 5.91 -8.3125 6.25 C-8.6425 7.9 -8.9725 9.55 -9.3125 11.25 C-6.56450599 13.99799401 -4.83006876 13.48008629 -1 13.5625 C3.28665331 13.84701239 5.30357315 14.01095121 9 16.3125 C11.37177889 20.44115214 11.36293712 22.52194015 10.6875 27.25 C8.81734906 29.68119623 7.40611655 30.89069173 4.6875 32.25 C3.16601674 32.33372659 1.64094222 32.35730027 0.1171875 32.34765625 C-0.77871094 32.34443359 -1.67460937 32.34121094 -2.59765625 32.33789062 C-4.00337891 32.32532227 -4.00337891 32.32532227 -5.4375 32.3125 C-6.38238281 32.30798828 -7.32726562 32.30347656 -8.30078125 32.29882812 C-10.63808387 32.28702357 -12.97526061 32.27055759 -15.3125 32.25 C-15.3125 30.6 -15.3125 28.95 -15.3125 27.25 C-9.0425 26.92 -2.7725 26.59 3.6875 26.25 C4.0175 24.6 4.3475 22.95 4.6875 21.25 C2.88210905 19.44460905 -0.06374998 20.0770791 -2.5 20 C-10.05297161 19.42730215 -10.05297161 19.42730215 -13.125 17.3125 C-15.80778009 13.55660788 -15.99084211 11.16865679 -16.01171875 6.65234375 C-13.76641012 -1.0619848 -6.5872683 -0.24207629 0 0 Z " fill="#F6F6F6" transform="translate(205.3125,129.75)"/>
<path d="M0 0 C2.81972931 2.36493426 2.97850831 3.8280665 3.4375 7.5 C3 11 3 11 1.00390625 12.75390625 C-1.83829222 15.93960629 -1.53334678 18.23163762 -1.5 22.4375 C-1.5103125 23.73558594 -1.520625 25.03367187 -1.53125 26.37109375 C-0.9364328 30.4342201 0.17679232 32.09276828 3 35 C1.68 35.99 0.36 36.98 -1 38 C-6.6847995 34.39664283 -6.6847995 34.39664283 -7.49511719 30.80615234 C-7.59005689 28.24431157 -7.52385402 25.74664408 -7.375 23.1875 C-7.34792969 22.30384766 -7.32085937 21.42019531 -7.29296875 20.50976562 C-7.22255869 18.33878886 -7.11494606 16.16907471 -7 14 C-7.639375 13.690625 -8.27875 13.38125 -8.9375 13.0625 C-11 12 -11 12 -12 11 C-12.70119522 3.87118194 -12.70119522 3.87118194 -9.9375 0.4375 C-6.08838451 -1.44610971 -4.07579849 -1.207644 0 0 Z " fill="#ECEEED" transform="translate(145,54)"/>
<path d="M0 0 C0.33 0 0.66 0 1 0 C1.268125 1.093125 1.53625 2.18625 1.8125 3.3125 C2.63854403 6.91289416 2.63854403 6.91289416 4.625 8.5 C6 10 6 10 6.4375 13.4375 C6 17 6 17 4.4375 19.375 C1.1174374 21.58837507 -1.0025615 22.140261 -5 22 C-8.48062649 18.9637088 -9.749394 17.39225554 -10.5625 12.875 C-9.87777376 9.37528813 -8.80450887 8.14462443 -6 6 C-5.34 6 -4.68 6 -4 6 C-3.67 5.01 -3.34 4.02 -3 3 C-3 3.99 -3 4.98 -3 6 C-2.01 6 -1.02 6 0 6 C0 4.02 0 2.04 0 0 Z " fill="#EEEFF0" transform="translate(155,224)"/>
<path d="M0 0 C1.65 0 3.3 0 5 0 C6.80704211 16.1462559 6.80704211 16.1462559 3.83837891 20.83447266 C1.84470242 22.94297857 -0.31562032 24.65966368 -2.63476562 26.39501953 C-5.22945692 28.35038263 -6.83850684 29.57863278 -8.01953125 32.66015625 C-8.33550463 35.39958484 -8.33550463 35.39958484 -8 39 C-8.33 39 -8.66 39 -9 39 C-9.22151549 37.20991533 -9.42682213 35.41781838 -9.625 33.625 C-9.74101562 32.62726563 -9.85703125 31.62953125 -9.9765625 30.6015625 C-9.98429688 29.74304688 -9.99203125 28.88453125 -10 28 C-9.34 27.34 -8.68 26.68 -8 26 C-7.5978125 24.8553125 -7.5978125 24.8553125 -7.1875 23.6875 C-6 21 -6 21 -3.4765625 18.8515625 C-0.21372851 15.09467163 -0.22623887 12.5040328 -0.1875 7.6875 C-0.16236328 6.94693359 -0.13722656 6.20636719 -0.11132812 5.44335938 C-0.05281557 3.62947031 -0.02345651 1.81468097 0 0 Z " fill="#E5E6E6" transform="translate(175,68)"/>
<path d="M0 0 C3.875 1.875 3.875 1.875 5 3 C5.1875 6.4375 5.1875 6.4375 5 10 C4.34 10.66 3.68 11.32 3 12 C2.67 11.34 2.34 10.68 2 10 C2.33 9.34 2.66 8.68 3 8 C2.2575 8.350625 1.515 8.70125 0.75 9.0625 C-2.1322726 10.04509293 -3.21176345 10.0326802 -6 9 C-6 6.69 -6 4.38 -6 2 C-4.35 2 -2.7 2 -1 2 C-0.67 1.34 -0.34 0.68 0 0 Z " fill="#E2E4E3" transform="translate(124,66)"/>
<path d="M0 0 C0.33 0 0.66 0 1 0 C1.69659026 4.02474375 2.17491826 7.08360578 1 11 C0.96213099 12.66623639 0.95372155 14.33397597 1 16 C-0.65 16.33 -2.3 16.66 -4 17 C-4.33 14.69 -4.66 12.38 -5 10 C-5.66 10 -6.32 10 -7 10 C-7.66 11.98 -8.32 13.96 -9 16 C-9.33 16 -9.66 16 -10 16 C-10.33663062 12.29706315 -10.47736015 10.60465619 -8.125 7.625 C-6 6 -6 6 -4 6 C-3.67 5.01 -3.34 4.02 -3 3 C-3 3.99 -3 4.98 -3 6 C-2.01 6 -1.02 6 0 6 C0 4.02 0 2.04 0 0 Z " fill="#E0E2E3" transform="translate(155,224)"/>
<path d="M0 0 C0.99 0.33 1.98 0.66 3 1 C3.625 4.375 3.625 4.375 4 8 C3.34 8.66 2.68 9.32 2 10 C1.67 9.34 1.34 8.68 1 8 C-1.31 8.33 -3.62 8.66 -6 9 C-6.33 7.35 -6.66 5.7 -7 4 C-6.030625 3.71125 -5.06125 3.4225 -4.0625 3.125 C-0.89335797 2.35785318 -0.89335797 2.35785318 0 0 Z " fill="#E5E7E6" transform="translate(201,67)"/>
<path d="M0 0 C0.66 0.66 1.32 1.32 2 2 C1.67 2.99 1.34 3.98 1 5 C-2.375 5.625 -2.375 5.625 -6 6 C-6.66 5.34 -7.32 4.68 -8 4 C-8.66 3.67 -9.32 3.34 -10 3 C-6.70335635 -0.04305568 -4.44038228 -0.48265025 0 0 Z " fill="#E7E9E9" transform="translate(200,65)"/>
<path d="M0 0 C0 1.65 0 3.3 0 5 C-1.65 5.33 -3.3 5.66 -5 6 C-5.33 4.02 -5.66 2.04 -6 0 C-3.50907189 -1.24546405 -2.58919267 -0.7767578 0 0 Z " fill="#1C272D" transform="translate(156,235)"/>
<path d="M0 0 C1.65 0.33 3.3 0.66 5 1 C4.67 2.65 4.34 4.3 4 6 C2.35 5.67 0.7 5.34 -1 5 C-0.67 3.35 -0.34 1.7 0 0 Z " fill="#1D2C31" transform="translate(195,70)"/>
<path d="M0 0 C2.125 0.375 2.125 0.375 4 1 C4.33 2.32 4.66 3.64 5 5 C3.35 5.33 1.7 5.66 0 6 C-0.66 4.68 -1.32 3.36 -2 2 C-1.34 1.34 -0.68 0.68 0 0 Z " fill="#1E302F" transform="translate(139,58)"/>
<path d="M0 0 C1.67542976 0.28604898 3.34385343 0.61781233 5 1 C5 2.32 5 3.64 5 5 C3.35 5.33 1.7 5.66 0 6 C-0.38218767 4.34385343 -0.71395102 2.67542976 -1 1 C-0.67 0.67 -0.34 0.34 0 0 Z " fill="#1E2C2F" transform="translate(119,70)"/>
<path d="M0 0 C0.66 0.33 1.32 0.66 2 1 C1.67 1.556875 1.34 2.11375 1 2.6875 C-0.1309601 5.30284522 -0.15662974 7.1806646 0 10 C-1.32 10 -2.64 10 -4 10 C-3.38461538 3.47692308 -3.38461538 3.47692308 -1.4375 1.0625 C-0.7259375 0.5365625 -0.7259375 0.5365625 0 0 Z " fill="#E4E8E6" transform="translate(117,65)"/>
<path d="M0 0 C5.57142857 5.14285714 5.57142857 5.14285714 6 9 C5.01 9.33 4.02 9.66 3 10 C0.96564469 6.27034861 0 4.33094958 0 0 Z " fill="#101C26" transform="translate(159,178)"/>
<path d="M0 0 C1.41377341 2.63904371 2.37240135 5.07120629 3 8 C1.35 7.67 -0.3 7.34 -2 7 C-2.33 6.01 -2.66 5.02 -3 4 C-1.5625 1.8125 -1.5625 1.8125 0 0 Z " fill="#1D2932" transform="translate(158,178)"/>
<path d="M0 0 C1.2065625 0.0309375 1.2065625 0.0309375 2.4375 0.0625 C2.1075 1.3825 1.7775 2.7025 1.4375 4.0625 C0.261875 4.0315625 0.261875 4.0315625 -0.9375 4 C-3.54364961 3.87565937 -3.54364961 3.87565937 -5.5625 5.0625 C-3.15007962 0.07683121 -3.15007962 0.07683121 0 0 Z " fill="#F9FAF8" transform="translate(121.5625,64.9375)"/>
<path d="M0 0 C0.99 0.33 1.98 0.66 3 1 C2.34 2.65 1.68 4.3 1 6 C0.01 6 -0.98 6 -2 6 C-1.125 1.125 -1.125 1.125 0 0 Z " fill="#F5F7F5" transform="translate(135,57)"/>
<path d="M0 0 C1.32 0 2.64 0 4 0 C4 1.98 4 3.96 4 6 C3.34 5.01 2.68 4.02 2 3 C1.67 4.65 1.34 6.3 1 8 C0.67 8 0.34 8 0 8 C0 5.36 0 2.72 0 0 Z " fill="#FDFCFA" transform="translate(176,68)"/>
<path d="M0 0 C4.29 0 8.58 0 13 0 C12.67 0.99 12.34 1.98 12 3 C11.34 2.67 10.68 2.34 10 2 C8.29636178 1.77377919 6.58671299 1.59111527 4.875 1.4375 C3.96492187 1.35371094 3.05484375 1.26992187 2.1171875 1.18359375 C1.41851562 1.12300781 0.71984375 1.06242188 0 1 C0 0.67 0 0.34 0 0 Z " fill="#596369" transform="translate(200,177)"/>
</svg>
